<svg version="1.1" xmlns="http://www.w3.org/2000/svg" xmlns:xlink="http://www.w3.org/1999/xlink" width="967.54372" height="557.46829" viewBox="0,0,967.54372,557.46829"><g transform="translate(2.68521,8.46249)"><g stroke="none" stroke-miterlimit="10"><path d="M-2.68521,549.00581v-557.46829h967.54372v557.46829z" fill="#e8cab3" stroke-width="0"/><path d="M165.23561,481.08438v-161.47359h125.27425v161.47359z" fill="#e80000" stroke-width="0"/><path d="M294.50797,313.84391c0,30.78811 -28.34193,55.74683 -63.30348,55.74683c-34.96155,0 -63.30348,-24.9587 -63.30348,-55.74683c0,-30.78813 28.34193,-55.74683 63.30348,-55.74683c34.96155,0 63.30348,24.95869 63.30348,55.74682z" fill="#e80000" stroke-width="0"/><path d="M385.1319,479.80285v-133.27978h113.27991v133.27978z" fill="#00e807" stroke-width="0"/><path d="M441.10551,373.43533c-30.17733,0 -54.64089,-20.94236 -54.64089,-46.77607c0,-25.83371 24.46356,-46.77607 54.64089,-46.77607c30.17733,0 54.64089,20.94236 54.64089,46.77607c0,25.83371 -24.46356,46.77607 -54.64089,46.77607z" fill="#00e835" stroke-width="0"/><path d="M606.3609,492.6182v-156.34743h119.94344v156.34743z" fill="#e8d700" stroke-width="0"/><path d="M661.66815,387.53224c-35.69759,0 -64.63619,-22.37677 -64.63619,-49.97992c0,-27.60315 28.93862,-49.97992 64.63619,-49.97992c35.69759,0 64.63619,22.37677 64.63619,49.97992c0,27.60315 -28.93862,49.97992 -64.63619,49.97992z" fill="#e8d700" stroke-width="0"/><text transform="translate(350.48157,156.85569) scale(0.70847,0.68127)" font-size="40" xml:space="preserve" fill="#ffffff" stroke-width="1" font-family="Sans Serif" font-weight="normal" text-anchor="start"><tspan x="0" dy="0">выбери дверь</tspan></text><text transform="translate(139.32921,235.562) scale(0.68549,0.68127)" font-size="40" xml:space="preserve" fill="#ffffff" stroke-width="1" font-family="Sans Serif" font-weight="normal" text-anchor="start"><tspan x="0" dy="0">Сердце тянуло налево… но разум выбрал право.</tspan></text></g></g></svg>